<svg width="13" height="13" viewBox="0 0 13 13" fill="none" xmlns="http://www.w3.org/2000/svg">
    <path d="M12.929 12.5845L9.14135 8.79168C10.1074 7.85876 10.7059 6.57265 10.7059 5.15425C10.7059 2.31205 8.30476 0 5.35297 0C2.40119 0 -4.98345e-09 2.31205 -4.98345e-09 5.15425C-4.98345e-09 7.99645 2.40119 10.3085 5.35297 10.3085C6.64865 10.3085 7.83777 9.86253 8.7646 9.12253L12.5614 12.9247C12.6114 12.975 12.6781 13 12.7452 13C12.8089 13 12.8724 12.9772 12.9218 12.9315C13.0233 12.8375 13.0263 12.6822 12.929 12.5845ZM5.35297 9.81762C2.68235 9.81762 0.509807 7.72573 0.509807 5.15425C0.509807 2.58277 2.68235 0.490881 5.35297 0.490881C8.0236 0.490881 10.1961 2.58277 10.1961 5.15425C10.1961 7.72573 8.02334 9.81762 5.35297 9.81762Z"
          fill="#4F4F4F"/>
</svg>
